<svg xmlns="http://www.w3.org/2000/svg" viewBox="0 0 300 100"><defs><style>.cls-1{fill:#ede318;}.cls-2{fill:#ff0;}.cls-3{fill:none;stroke:#070808;stroke-miterlimit:10;stroke-width:3.01px;}.cls-4{fill:#a59e10;opacity:0.5;}</style></defs><g id="Capa_2" data-name="Capa 2"><g id="Capa_4" data-name="Capa 4"><rect class="cls-1" x="9.75" y="9.42" width="280.49" height="81.15" rx="4.71"/><path class="cls-2" d="M283,7.15H17a9.44,9.44,0,0,0-9.63,9.24V83.61A9.44,9.44,0,0,0,17,92.85H283a9.44,9.44,0,0,0,9.63-9.24V16.39A9.44,9.44,0,0,0,283,7.15Zm4.88,76.46A4.78,4.78,0,0,1,283,88.3H17a4.78,4.78,0,0,1-4.88-4.69V16.39A4.78,4.78,0,0,1,17,11.7H283a4.78,4.78,0,0,1,4.88,4.69Z"/><rect class="cls-3" x="1.51" y="1.51" width="296.99" height="96.99" rx="10.28"/><path class="cls-4" d="M292.62,51V83.61A9.44,9.44,0,0,1,283,92.85H17a9.44,9.44,0,0,1-9.63-9.24V51Z"/></g></g></svg>