<svg xmlns="http://www.w3.org/2000/svg" viewBox="0 0 1000 180"><defs><style>.cls-1{fill:#d5cc15;}.cls-2{fill:#bdb513;opacity:0.56;}</style></defs><g id="Capa_2" data-name="Capa 2"><g id="Capa_4" data-name="Capa 4"><path class="cls-1" d="M0,131.06c1.2-39.37,1.82-38.28,3.16-82.43C3.52,32,24.73,16.49,40.94,11.2S86,1.83,101.28,2C278.66,4.07,460.51,1.8,636.79.9,736.59.39,836.86-.57,936.71.45c45,.92,59.87,19.49,59.22,31.67-.33,6.17-.73,12.37-1.28,17.39-1.2,28.87,5.21,54.57,5.35,82.16,0,6.82-6.24,43.29-61.51,39.18-63.43.4-165-1.28-187-2.27-121.3-5.49-242.15,1.86-364.22,1.66-109.41-.18-164.41.71-273.93,2C93.73,172.42-1.37,177.42,0,131.06Z"/><path class="cls-2" d="M974.52,160.26c-7.45,10.36-22.58,20.42-52.89,18.21-61.63.38-160.31-1.21-181.7-2.15C622,171.1,504.62,178.08,386,177.9c-106.31-.17-159.75.66-266.18,1.85-15.88.18-82.61,3.5-103.71-20.83,29.07,13.16,77.44,10.8,90.79,10.64,109.53-1.25,164.53-2.13,273.94-2,122.07.2,242.91-7.15,364.21-1.67,22,1,123.57,2.69,187,2.29C951.84,169.69,965.33,166,974.52,160.26Z"/></g></g></svg>