<svg xmlns="http://www.w3.org/2000/svg" viewBox="0 0 980 100"><defs><style>.cls-1{fill:#d5cc15;}.cls-2{fill:#bdb513;opacity:0.56;}</style></defs><g id="Capa_2" data-name="Capa 2"><g id="Capa_4" data-name="Capa 4"><path class="cls-1" d="M0,72.81C1.18,50.94,1.79,51.54,3.11,27c.34-9.22,21.12-17.86,37-20.8S84.32,1,99.26,1.11C273.09,2.26,451.3,1,624.05.5,721.86.21,820.12-.31,918,.25c44.08.51,58.67,10.83,58,17.59-.33,3.43-.72,6.88-1.25,9.66-1.17,16,5.1,30.32,5.24,45.65,0,3.79-6.12,24-60.28,21.77-62.16.22-161.67-.71-183.25-1.27-118.88-3.05-237.31,1-356.93.93-107.22-.1-161.12.39-268.45,1.09C91.86,95.79-1.34,98.57,0,72.81Z"/><path class="cls-2" d="M955,89c-7.3,5.76-22.13,11.35-51.83,10.12-60.4.21-157.1-.67-178.07-1.19-115.53-2.9-230.6,1-346.84.87-104.18-.09-156.56.37-260.85,1-15.57.1-81,1.94-101.64-11.57,28.48,7.31,75.88,6,89,5.91C212.11,93.5,266,93,373.23,93.11c119.63.11,238.06-4,356.93-.93,21.57.56,121.1,1.5,183.26,1.27C932.8,94.27,946,92.2,955,89Z"/></g></g></svg>