<svg xmlns="http://www.w3.org/2000/svg" viewBox="0 0 70 70"><defs><style>.cls-1{fill:#ede318;}.cls-2{fill:#ff0;}.cls-3{fill:#070808;}.cls-4{fill:#fff;stroke:#3558a4;stroke-width:1.28px;}.cls-4,.cls-5{stroke-miterlimit:10;}.cls-5{font-size:43.97px;fill:#fbae17;stroke:#1291cd;stroke-width:0.64px;font-family:BerlinSansFBDemi-Bold, Berlin Sans FB Demi;font-weight:700;}</style></defs><g id="Capa_2" data-name="Capa 2"><g id="Capa_4" data-name="Capa 4"><path class="cls-1" d="M55.52,64.17h-41a8.84,8.84,0,0,1-8.65-9V14.84a8.84,8.84,0,0,1,8.65-9h41a8.84,8.84,0,0,1,8.65,9V55.16A8.84,8.84,0,0,1,55.52,64.17Z"/><path class="cls-2" d="M55.52,4.57h-41A10.09,10.09,0,0,0,4.61,14.85V55.16a10.08,10.08,0,0,0,9.87,10.27h41a10.08,10.08,0,0,0,9.87-10.27V14.85A10.09,10.09,0,0,0,55.52,4.57ZM63,55.16a7.6,7.6,0,0,1-7.43,7.74h-41a7.6,7.6,0,0,1-7.43-7.74V14.85A7.6,7.6,0,0,1,14.48,7.1h41A7.6,7.6,0,0,1,63,14.85Z"/><path class="cls-3" d="M56.43,2.51A11.42,11.42,0,0,1,67.59,14.14V55.86A11.42,11.42,0,0,1,56.43,67.49H13.57A11.42,11.42,0,0,1,2.41,55.86V14.14A11.42,11.42,0,0,1,13.57,2.51H56.43m0-2.51H13.57C6.08,0,0,6.33,0,14.14V55.86C0,63.67,6.08,70,13.57,70H56.43C63.92,70,70,63.67,70,55.86V14.14C70,6.33,63.92,0,56.43,0Z"/><ellipse class="cls-4" cx="34.15" cy="33.54" rx="23.48" ry="20.97"/><text class="cls-5" transform="translate(25.23 48.78) scale(1.12 1)">?</text></g></g></svg>