<svg xmlns="http://www.w3.org/2000/svg" viewBox="0 0 361.15 155.8"><defs><style>.cls-1{fill:#ede318;}.cls-2{fill:#ff0;}.cls-3{fill:none;stroke:#070808;stroke-miterlimit:10;stroke-width:4px;}.cls-4{fill:#a59e10;opacity:0.5;}</style></defs><g id="Capa_2" data-name="Capa 2"><g id="Capa_4" data-name="Capa 4"><rect class="cls-1" x="11.92" y="14.39" width="337.31" height="127.02" rx="6.25"/><path class="cls-2" d="M340.5,10.83H20.65c-6.4,0-11.58,6.47-11.58,14.47V130.5c0,8,5.18,14.47,11.58,14.47H340.5c6.4,0,11.59-6.47,11.59-14.47V25.3C352.09,17.3,346.9,10.83,340.5,10.83Zm5.88,119.67c0,4.06-2.63,7.34-5.88,7.34H20.65c-3.25,0-5.88-3.28-5.88-7.34V25.3c0-4.06,2.63-7.35,5.88-7.35H340.5c3.25,0,5.88,3.29,5.88,7.35Z"/><rect class="cls-3" x="2" y="2" width="357.16" height="151.8" rx="13.66"/><path class="cls-4" d="M352.09,79.45V130.5c0,8-5.19,14.47-11.59,14.47H20.65c-6.4,0-11.58-6.47-11.58-14.47v-51Z"/></g></g></svg>