<svg xmlns="http://www.w3.org/2000/svg" viewBox="0 0 400 140"><defs><style>.cls-1{fill:#ede318;}.cls-2{fill:#ff0;}.cls-3{fill:none;stroke:#070808;stroke-miterlimit:10;stroke-width:3.03px;}.cls-4{fill:#a59e10;opacity:0.5;}</style></defs><g id="Capa_2" data-name="Capa 2"><g id="Capa_4" data-name="Capa 4"><rect class="cls-1" x="12.54" y="12.7" width="374.92" height="114.61" rx="4.73"/><path class="cls-2" d="M377.76,9.48H22.24A13,13,0,0,0,9.37,22.53v94.94a13,13,0,0,0,12.87,13.05H377.76a13,13,0,0,0,12.87-13.05V22.53A13,13,0,0,0,377.76,9.48Zm6.53,108a6.57,6.57,0,0,1-6.53,6.62H22.24a6.57,6.57,0,0,1-6.53-6.62V22.53a6.57,6.57,0,0,1,6.53-6.62H377.76a6.57,6.57,0,0,1,6.53,6.62Z"/><rect class="cls-3" x="1.51" y="1.51" width="396.97" height="136.97" rx="10.34"/><path class="cls-4" d="M390.63,71.4v46.07a13,13,0,0,1-12.87,13.05H22.24A13,13,0,0,1,9.37,117.47V71.4Z"/></g></g></svg>