<svg xmlns="http://www.w3.org/2000/svg" viewBox="0 0 285 100.08"><defs><style>.cls-1{fill:#ede318;}.cls-2{fill:#ff0;}.cls-3{fill:none;stroke:#070808;stroke-miterlimit:10;stroke-width:2.84px;}.cls-4{fill:#a59e10;opacity:0.5;}</style></defs><g id="Capa_2" data-name="Capa 2"><g id="Capa_4" data-name="Capa 4"><rect class="cls-1" x="9.26" y="9.36" width="266.48" height="81.36" rx="4.45"/><path class="cls-2" d="M268.84,7.08H16.16A9.2,9.2,0,0,0,7,16.34V83.73A9.21,9.21,0,0,0,16.16,93H268.84A9.21,9.21,0,0,0,278,83.73V16.34A9.2,9.2,0,0,0,268.84,7.08Zm4.65,76.65a4.67,4.67,0,0,1-4.65,4.7H16.16a4.67,4.67,0,0,1-4.65-4.7V16.34a4.67,4.67,0,0,1,4.65-4.7H268.84a4.67,4.67,0,0,1,4.65,4.7Z"/><rect class="cls-3" x="1.42" y="1.42" width="282.16" height="97.23" rx="9.72"/><path class="cls-4" d="M278,51v32.7A9.21,9.21,0,0,1,268.84,93H16.16A9.21,9.21,0,0,1,7,83.73V51Z"/></g></g></svg>