<svg xmlns="http://www.w3.org/2000/svg" viewBox="0 0 475 140"><defs><style>.cls-1{fill:#ede318;}.cls-2{fill:#ff0;}.cls-3{fill:none;stroke:#070808;stroke-miterlimit:10;stroke-width:3.03px;}.cls-4{fill:#a59e10;opacity:0.5;}</style></defs><g id="Capa_2" data-name="Capa 2"><g id="Capa_4" data-name="Capa 4"><rect class="cls-1" x="14.62" y="12.7" width="445.75" height="114.61" rx="4.74"/><path class="cls-2" d="M448.84,9.48H26.16c-8.45,0-15.3,5.84-15.3,13.06v94.92c0,7.22,6.85,13.06,15.3,13.06H448.84c8.45,0,15.3-5.84,15.3-13.06V22.54C464.14,15.32,457.29,9.48,448.84,9.48Zm7.77,108c0,3.67-3.48,6.63-7.77,6.63H26.16c-4.29,0-7.77-3-7.77-6.63V22.54c0-3.67,3.48-6.63,7.77-6.63H448.84c4.29,0,7.77,3,7.77,6.63Z"/><rect class="cls-3" x="1.51" y="1.51" width="471.97" height="136.97" rx="10.35"/><path class="cls-4" d="M464.14,71.4v46.06c0,7.22-6.85,13.06-15.3,13.06H26.16c-8.45,0-15.3-5.84-15.3-13.06V71.4Z"/></g></g></svg>