<svg xmlns="http://www.w3.org/2000/svg" viewBox="0 0 62.29 59.8"><defs><style>.cls-1{fill:#ede318;}.cls-2{fill:#ff0;}.cls-3{fill:#070808;}.cls-4{opacity:0.5;}.cls-5{fill:#a59e10;}.cls-6{fill:#1d1d1b;}.cls-7{fill:#373735;}.cls-8{fill:#1a1a1a;}</style></defs><g id="Capa_2" data-name="Capa 2"><g id="Capa_4" data-name="Capa 4"><rect class="cls-1" x="5.19" y="4.98" width="51.91" height="49.83" rx="7.7"/><path class="cls-2" d="M49.41,3.9H12.89a8.79,8.79,0,0,0-8.78,8.78V47.12a8.78,8.78,0,0,0,8.78,8.77H49.41a8.78,8.78,0,0,0,8.78-8.77V12.68A8.79,8.79,0,0,0,49.41,3.9ZM56,47.12a6.62,6.62,0,0,1-6.61,6.61H12.89a6.62,6.62,0,0,1-6.61-6.61V12.68a6.62,6.62,0,0,1,6.61-6.62H49.41A6.62,6.62,0,0,1,56,12.68Z"/><path class="cls-3" d="M50.21,2.15a9.94,9.94,0,0,1,9.93,9.93V47.72a9.94,9.94,0,0,1-9.93,9.93H12.08a9.94,9.94,0,0,1-9.93-9.93V12.08a9.94,9.94,0,0,1,9.93-9.93H50.21m0-2.15H12.08A12.08,12.08,0,0,0,0,12.08V47.72A12.08,12.08,0,0,0,12.08,59.8H50.21A12.08,12.08,0,0,0,62.29,47.72V12.08A12.08,12.08,0,0,0,50.21,0Z"/><g class="cls-4"><path class="cls-5" d="M58.19,30.34V47.12a8.78,8.78,0,0,1-8.78,8.77H12.89a8.78,8.78,0,0,1-8.78-8.77V30.34Z"/></g><path class="cls-6" d="M27.88,32.36a.69.69,0,0,1,.05.28.35.35,0,0,1-.11.26.36.36,0,0,1-.32,0,.69.69,0,0,1-.23-.19,2.11,2.11,0,0,1-.33-1.34c.06-.33.12-.43.23-.53s.27-.2.34-.08a1,1,0,0,1,.07.46,1.37,1.37,0,0,0,.05.4C27.73,31.9,27.8,32.1,27.88,32.36Z"/><path class="cls-6" d="M21.2,28.67a1,1,0,0,1-.32.41.22.22,0,0,1-.3-.1.92.92,0,0,1,0-.42,6.36,6.36,0,0,1,.67-2.32,2.92,2.92,0,0,1,.61-.82c.13-.09.41-.22.38,0s-.42,1.13-.48,1.37A13.91,13.91,0,0,1,21.2,28.67Z"/><path class="cls-6" d="M38.07,30.73a.14.14,0,0,0,.23,0,.57.57,0,0,0,.09-.25A2.65,2.65,0,0,0,38,29a1.39,1.39,0,0,0-.43-.48.15.15,0,0,0-.23.15,1.33,1.33,0,0,0,.18.38A7.43,7.43,0,0,1,38,30C38,30.38,38,30.65,38.07,30.73Z"/><path class="cls-6" d="M43.78,34.73a.15.15,0,0,0-.15-.18.54.54,0,0,0-.23.13,2.11,2.11,0,0,0-.74,1.11,1.28,1.28,0,0,0-.08.64.15.15,0,0,0,.25.08,1.38,1.38,0,0,0,.18-.39,6.16,6.16,0,0,1,.38-.8C43.56,35,43.74,34.82,43.78,34.73Z"/><path class="cls-6" d="M30.38,26.41a10.5,10.5,0,0,1,1.78-.51,9.26,9.26,0,0,1,1.51-.14,5,5,0,0,1,1.59.18,1.46,1.46,0,0,1,1.07.88,3,3,0,0,1-.79-.06,6.69,6.69,0,0,0-1.06-.25,7,7,0,0,0-3,.27,7.44,7.44,0,0,0-1.72.82,6.75,6.75,0,0,0-1,.81,7.81,7.81,0,0,0-.65.83c-.06.06-.3.27-.39.22s0-.27,0-.35a4.93,4.93,0,0,1,.41-.83,4.62,4.62,0,0,1,2.2-1.87Z"/><path class="cls-6" d="M24.61,42a3.2,3.2,0,0,0-.58.49,4.6,4.6,0,0,1-.66.63c-.09.07-.18.13-.3,0l-.29-.29a.86.86,0,0,0-.52-.26c-.41,0-.05.46.11.64a2.49,2.49,0,0,0,.51.44,1.55,1.55,0,0,0,.29.19.73.73,0,0,0,.25.07c.07,0,.15-.12.25-.21s.39-.37.61-.56.65-.48.76-.59.41-.45.35-.67S24.85,41.85,24.61,42Z"/><path class="cls-7" d="M41.71,41.24a2.44,2.44,0,0,0-.35-.43,1.9,1.9,0,0,0-.21-.19,1.12,1.12,0,0,0-.45-.2,2.27,2.27,0,0,0-1.3.21c-.76.27-1.54.53-2.28.84l-1.81.78a.85.85,0,0,0-.39.36.93.93,0,0,0,0,.52c0,.33.13.66.19,1,0,.07.19,0,.22-.05a5.25,5.25,0,0,0,.19-1.19s.2-.11.34-.18l.42-.21a7.34,7.34,0,0,1,.83-.37c.74-.27,1.5-.49,2.26-.72a4.52,4.52,0,0,1,1.11-.28.68.68,0,0,1,.47.15l.53.28C41.58,41.62,41.8,41.38,41.71,41.24Z"/><path class="cls-6" d="M21.1,21.52a.11.11,0,0,1,0-.12.24.24,0,0,1,.06-.11,1.11,1.11,0,0,1,.34-.22,2.08,2.08,0,0,0,.68-.49.41.41,0,0,1,.09-.1.29.29,0,0,1,.26,0,.79.79,0,0,1,.23.14,3,3,0,0,1,.71.91.18.18,0,0,1,0,.16.35.35,0,0,1-.25,0,1.63,1.63,0,0,1-.36-.14,2.51,2.51,0,0,1-.46-.33.42.42,0,0,0-.24-.09.52.52,0,0,0-.31.14,1.85,1.85,0,0,1-.37.19C21.36,21.52,21.18,21.59,21.1,21.52Z"/><path class="cls-6" d="M28.72,21.33a.92.92,0,0,1,.3-.64,1.66,1.66,0,0,1,.3-.22l.93-.58a3.29,3.29,0,0,0,.78-.61c.23-.27.38-.61.59-.9a.81.81,0,0,1,.59-.42.15.15,0,0,1,.09,0,.19.19,0,0,1,0,.13A3,3,0,0,1,32,19a4,4,0,0,1-.88,1.25,3.47,3.47,0,0,1-.38.29q-.37.26-.78.48l-.41.22a1.63,1.63,0,0,1-.38.17A1.76,1.76,0,0,1,28.72,21.33Z"/><path class="cls-6" d="M44.13,22.61a1.24,1.24,0,0,1,.19.21.74.74,0,0,1-.07.73,7.23,7.23,0,0,1-.4.66,2.08,2.08,0,0,0-.25.52,2.52,2.52,0,0,0,0,.55c0,.17.15,1.81.19,2.07a3.07,3.07,0,0,1,.12.85c0,.12-.11.21-.35,0a1.24,1.24,0,0,1-.25-.33,2.34,2.34,0,0,1-.18-.79c-.06-.61-.08-1.23-.14-1.85a2.23,2.23,0,0,1,.08-1.06c.17-.36.52-.58.6-1a.39.39,0,0,0,0-.24.76.76,0,0,0-.19-.21c-.11-.1-.72-.78-.24-.8.15,0,.36.2.47.29Z"/><path class="cls-3" d="M50.14,29.87c.38.41.51.47.49,1.14,0,.95,0,1.87,0,2.69,0,.54-.11.78-.36.85a10.68,10.68,0,0,0-1.79.87,7.39,7.39,0,0,1-1.21.62.51.51,0,0,0-.3.34l-.27.68a.76.76,0,0,0,0,.55l1.55,3.09a.58.58,0,0,1,0,.68c-.28.53-.65,1.13-1,1.66A17.26,17.26,0,0,1,44.49,46l-.33.31c-.19.19-.3.25-.46.11a10.65,10.65,0,0,0-3.11-1.51,2.12,2.12,0,0,0-2.13.72,11.23,11.23,0,0,0-.63,1.25,17.88,17.88,0,0,1-1.36,2.38,1,1,0,0,1-.79.44,25.94,25.94,0,0,1-4.21-.13,1.18,1.18,0,0,1-.78-.46A12,12,0,0,1,29,46.21a.47.47,0,0,0-.43-.33,14.37,14.37,0,0,0-2-.07,1.86,1.86,0,0,0-1.1.31c-.89.75-1.77,1.45-2.64,2.08a.33.33,0,0,1-.38,0,16.85,16.85,0,0,1-4.93-5.07l-.14-.85a31.45,31.45,0,0,0,.45-4.7c0-.52-.13-.8-.56-.82a1.6,1.6,0,0,1-.73-.17,11.31,11.31,0,0,0-1.77-.86,2.21,2.21,0,0,1-1.87-2.4c0-2.17,0-4.23.17-6a1.93,1.93,0,0,1,.81-1.52,31.25,31.25,0,0,1,3.59-2.67c.23-.16.27-.28.11-.51s-.44-.8-.65-1.24a2,2,0,0,1-.09-1.46,12.57,12.57,0,0,1,.66-2.16,4.5,4.5,0,0,0,.27-1,1.05,1.05,0,0,1,.48-.74,12.2,12.2,0,0,1,3.6-1.41,1.38,1.38,0,0,1,1.05,0L24.65,16c.49.33,1.05.34,1.33-.09s.39-.78.5-1A4.46,4.46,0,0,0,26.6,14a4.07,4.07,0,0,1,.69-1.31l.33-.37a1.12,1.12,0,0,1,.74-.4,26.38,26.38,0,0,1,5.94-.09,1,1,0,0,1,.75.35,5.34,5.34,0,0,1,.42.55,3.68,3.68,0,0,0,.48.55,9.22,9.22,0,0,1,1.88,2.76c.07.23.17.21.38.06a10.74,10.74,0,0,1,1.88-1,1.2,1.2,0,0,0,.45-.24.52.52,0,0,1,.67.07l3.64,3.47A22.41,22.41,0,0,1,47.24,21a6.79,6.79,0,0,1,.57.71,1,1,0,0,1,.2,1.07c-.32,1-.66,1.95-1,2.85-.1.23-.13.25,0,.4a11,11,0,0,1,2.26,2.66A5.54,5.54,0,0,0,50.14,29.87ZM47.83,33.2a11.22,11.22,0,0,0,0-3c-.11-.46-.45-.45-.7-.5s-1.22-.31-1.4-.34a.51.51,0,0,1-.37-.14,1.62,1.62,0,0,1-.21-.42,16.46,16.46,0,0,1-.68-1.71,4.82,4.82,0,0,1,.09-2.47c.2-.63.47-1.46.51-1.75s0-.29-.09-.43a23.36,23.36,0,0,0-2-1.92c-.15-.12-.19-.19-.63.05-.09.05-.82.47-1.37.87-.39.29-.58.57-.71.63a1,1,0,0,1-1,0,7.88,7.88,0,0,1-1.07-.69,9,9,0,0,1-1.41-.82,5.07,5.07,0,0,1-.87-1.78c-.1-.26-.45-1.09-.56-1.44s-.2-.39-.51-.45c-.13,0-.73-.09-1.32-.13s-1-.05-1.2,0c-.45,0-.44,0-.63.25a5.49,5.49,0,0,0-.64,1.1,7.61,7.61,0,0,1-1.23,1.67A12.24,12.24,0,0,1,27.33,21c-1,.45-1.77,1-1.87,1-.4-.15-.41-.48-.85-.88a9.65,9.65,0,0,0-1.07-.75c-.36-.25-.67-.52-.89-.66a.77.77,0,0,0-.85,0c-1,.57-1.55.9-1.75,1s-.34.25-.11.67a8.18,8.18,0,0,1,1,3.29A11.9,11.9,0,0,0,20.16,26a7.31,7.31,0,0,0-.41,1.76c0,.19,0,1-.12,1.13a4.55,4.55,0,0,1-1.39.7,6.6,6.6,0,0,0-2.13,1c-.37.25-.32,1-.3,1.69a1.53,1.53,0,0,0,.65,1.44c1,.85,1.93.67,3.05,1,.84.5,1.8,2.38,2.46,3.66a1.2,1.2,0,0,1,0,1.19c-.13.24-.34.47-.5.77a7.66,7.66,0,0,0-.74,2,1.43,1.43,0,0,0-.06.73,1.61,1.61,0,0,0,.57.71,8.26,8.26,0,0,0,1.21.83,1.38,1.38,0,0,0,.66.31c.14,0,.2-.07.37-.18s.8-.54,1.25-.9a7.17,7.17,0,0,1,1.17-.86c.8-.21,3.82.15,4.4.86.8,1,1.3,2.87,1.64,3a7.91,7.91,0,0,0,2.78.17c.33-.08.57-.7.68-.9a6.22,6.22,0,0,0,.46-1,5.41,5.41,0,0,1,.56-1.73,2.82,2.82,0,0,1,1.25-.79,10.68,10.68,0,0,1,1.89-.61,1.79,1.79,0,0,1,.86.06c.13.06.35.21.59.31a9.23,9.23,0,0,0,1,.33,3.07,3.07,0,0,0,1.34.15A16.22,16.22,0,0,0,45,40.87c.16-.31.17-.26,0-.73s-1.18-1.6-1.14-2.8a4.76,4.76,0,0,1,1.26-2.72C46.15,33.57,47.62,33.57,47.83,33.2Zm-1-4.65c.12-.12.11-.38-.14-.69l-.59-.69c-.22-.19-.48,0-.41.28a3,3,0,0,0,.48,1A.46.46,0,0,0,46.87,28.55Zm-5-8.83c.14-.09.17-.14,0-.24-.65-.45-1.29-.87-1.91-1.24a.34.34,0,0,0-.34,0,11,11,0,0,0-1.34.6c-.14.08-.14.13,0,.22a19.71,19.71,0,0,1,2.13,1.42c.1.1.19.07.3,0Zm-2.29,1.42c.29.16.3,0,.13-.15a8.5,8.5,0,0,0-1.32-1L38.25,20a3,3,0,0,1-1-.88A.3.3,0,0,0,37,19a.22.22,0,0,0,0,.25,1.39,1.39,0,0,1,.17.52.41.41,0,0,0,.32.23A20.25,20.25,0,0,1,39.53,21.14Zm-5-5.07c.22,0,.25-.05.12-.2a15.43,15.43,0,0,0-1.27-1.52.63.63,0,0,0-.5-.2,5.59,5.59,0,0,0-1.17.06,11.32,11.32,0,0,1-1.28.09c-.21,0-.27,0-.08.19a9.52,9.52,0,0,1,1.42,1.36c.09.13.22.15.53.1A10.61,10.61,0,0,1,34.56,16.07ZM31,16.49c.09-.17.07-.24-.06-.35l-1.34-1.3c-.21-.17-.24-.16-.37.05,0,0-.33.59-.4.78s-.67,1.62-.67,1.62a.23.23,0,0,0,.07.28,3.71,3.71,0,0,1,.61.58,2.51,2.51,0,0,0,.64.58c.06,0,.17.13.25,0Zm-2.36,2.87c.1-.08.17-.14.05-.28l-.74-.87a.27.27,0,0,0-.4-.06L25.43,19c-.18.08-.18.11-.13.35l.26,1.28c0,.17.07.23.34.08,0,0,.42-.25.94-.5s1.27-.58,1.36-.63A2.1,2.1,0,0,0,28.61,19.36ZM24.48,20q.22.15.15-.15l-.14-.61a.85.85,0,0,0-.33-.53,6.54,6.54,0,0,0-.61-.6,3.88,3.88,0,0,0-.57-.4c-.26-.14-.24,0-.22.22,0,0,0,.77,0,.9s.1.24.29.35S24.48,20,24.48,20Zm-2.7-1.22c.26,0,.27-.1.26-.31l-.1-1.46c0-.19-.1-.19-.29-.09-.37.16-.79.37-1.23.6a1.18,1.18,0,0,0-.4.57,7.46,7.46,0,0,0-.44,1.73c0,.36,0,.32.24.1A4.41,4.41,0,0,1,21.78,18.82ZM21,39.16a.3.3,0,0,0,0-.39S20,37,19.83,36.83s-.07-.1-.08,0c0,.32-.06,1.4-.06,2s.09,1.72.13,2c0,.11,0,.06.05,0l.48-.92A4.44,4.44,0,0,1,21,39.16Zm-.78-14.52a.35.35,0,0,0,.08-.33l-.06-.42c-.05-.23-.13-.21-.24,0a9,9,0,0,0-.59,1.67c-.07.33,0,.28.13,0A2.85,2.85,0,0,1,20.17,24.64Zm-1.55,3.9c.12,0,.12-.11.06-.25a4.59,4.59,0,0,1-.07-1.07c0-.21.07-1.16.07-1.16,0-.17-.05-.18-.21-.08L16.68,27a.61.61,0,0,0-.2.35l-.31,1.7c0,.16,0,.18.19.06,0,0,.81-.28,1.11-.36S18.62,28.54,18.62,28.54Z"/><path class="cls-8" d="M35.58,29a7.87,7.87,0,0,1-.12,2.65,3.39,3.39,0,0,1-.8,1.55,5.27,5.27,0,0,1-1,.87,3.73,3.73,0,0,1-1.3.5,7.09,7.09,0,0,1-2.07,0,3.85,3.85,0,0,1-1.91-1.08,4.13,4.13,0,0,1-1-2.08,4,4,0,0,1,0-1.42,5.65,5.65,0,0,1,2.29-3,5.19,5.19,0,0,1,2.63-.59,4,4,0,0,1,2.6,1A2.69,2.69,0,0,1,35.58,29Zm-1.21,1.89a3.19,3.19,0,0,0-.13-1.16c-.06-.29-.19-.25-.18,0,0,.11,0,.24,0,.35a2.44,2.44,0,0,1-.37,1.19,2.9,2.9,0,0,1-.8.71,4.27,4.27,0,0,1-2.25.48,2.79,2.79,0,0,1-1.78-.86c-.31-.31-.31-.22-.13.17A3.44,3.44,0,0,0,29.59,33a3,3,0,0,0,2.05.53,2.88,2.88,0,0,0,2.73-2.59Zm-1.25-.62a1.92,1.92,0,0,0,0-.79A1.72,1.72,0,0,0,33,28.8a1.25,1.25,0,0,0-.58-.46,2,2,0,0,0-.73-.15,3.5,3.5,0,0,0-1.4.23,2.46,2.46,0,0,0-1.33,1.21,1.48,1.48,0,0,0-.25.46,1,1,0,0,0,.16.6,1.71,1.71,0,0,0,.48.52,2.75,2.75,0,0,0,1.95.58,2,2,0,0,0,.33-.08,4.9,4.9,0,0,0,.89-.51,2.35,2.35,0,0,0,.5-.55A2.17,2.17,0,0,0,33.12,30.3Z"/><path class="cls-8" d="M26.72,31.49a.87.87,0,0,1,.05.28.36.36,0,0,1-.12.26.37.37,0,0,1-.31,0,.83.83,0,0,1-.23-.19,2.11,2.11,0,0,1-.33-1.34c.06-.33.11-.43.22-.53s.28-.2.35-.08a1,1,0,0,1,.07.46,1.1,1.1,0,0,0,0,.4C26.56,31,26.64,31.23,26.72,31.49Z"/><path class="cls-8" d="M20,27.8a1,1,0,0,1-.32.4.21.21,0,0,1-.3-.09,1.07,1.07,0,0,1-.06-.42A6.49,6.49,0,0,1,20,25.37a2.92,2.92,0,0,1,.61-.82c.13-.1.41-.22.38,0s-.42,1.14-.48,1.38A18.47,18.47,0,0,1,20,27.8Z"/><path class="cls-8" d="M36.91,29.86a.14.14,0,0,0,.23,0,.61.61,0,0,0,.08-.25,2.64,2.64,0,0,0-.38-1.56,1.5,1.5,0,0,0-.43-.48.15.15,0,0,0-.23.15,1.64,1.64,0,0,0,.18.38,6.07,6.07,0,0,1,.42,1C36.87,29.51,36.87,29.77,36.91,29.86Z"/><path class="cls-8" d="M42.62,33.86a.15.15,0,0,0-.15-.18.57.57,0,0,0-.24.13,2.12,2.12,0,0,0-.73,1.1,1.18,1.18,0,0,0-.08.64.14.14,0,0,0,.25.08,1.21,1.21,0,0,0,.18-.38,6.22,6.22,0,0,1,.38-.81C42.4,34.15,42.58,34,42.62,33.86Z"/><path class="cls-8" d="M29.22,25.54A9.18,9.18,0,0,1,31,25a11.24,11.24,0,0,1,1.5-.15,5.36,5.36,0,0,1,1.6.19,1.48,1.48,0,0,1,1.07.88,3.38,3.38,0,0,1-.79-.06,6.56,6.56,0,0,0-1.06-.26,7.21,7.21,0,0,0-3,.28,7.08,7.08,0,0,0-1.72.82,6.17,6.17,0,0,0-1,.81,7.81,7.81,0,0,0-.65.83c-.06.06-.3.27-.39.22s0-.27,0-.35A4.08,4.08,0,0,1,27,27.4a4.8,4.8,0,0,1,1.27-1.35A4.21,4.21,0,0,1,29.22,25.54Z"/><path class="cls-8" d="M21.86,36.31a2.86,2.86,0,0,0-.42-.77c-.1-.13-.19-.23-.28-.33a3.3,3.3,0,0,1-.22-.3c-.18-.29-.37-.54-.52-.8a1.8,1.8,0,0,1-.19-.36l0,0,0-.07-.05-.11-.09-.23a1.09,1.09,0,0,0-.3-.41l-.12-.08-.11,0-.19-.06-.77-.2A13,13,0,0,0,17,32.25c-.06,0-.07.13,0,.16a2.89,2.89,0,0,0,1.31.51l.73.16a3.37,3.37,0,0,1,.34.09l.1,0,.09.09a2.35,2.35,0,0,1,.16.4.93.93,0,0,1,0,.1.65.65,0,0,0,0,.13,2.44,2.44,0,0,0,.1.24c.14.3.32.57.48.84s.16.28.26.42.21.25.32.37.43.47.66.68C21.68,36.56,21.9,36.44,21.86,36.31Z"/><path class="cls-8" d="M27.56,20.46a1,1,0,0,1,.29-.64,2.18,2.18,0,0,1,.31-.22l.93-.58a3.57,3.57,0,0,0,.78-.61c.23-.27.38-.61.59-.9a.81.81,0,0,1,.59-.42.15.15,0,0,1,.09,0,.14.14,0,0,1,0,.13,2.77,2.77,0,0,1-.32.87A4.19,4.19,0,0,1,30,19.36a3.47,3.47,0,0,1-.38.29c-.26.17-.51.33-.78.48l-.41.21a1.33,1.33,0,0,1-.38.18A1.76,1.76,0,0,1,27.56,20.46Z"/></g></g></svg>