<svg xmlns="http://www.w3.org/2000/svg" xmlns:xlink="http://www.w3.org/1999/xlink" viewBox="0 0 1200 705.01"><defs><style>.cls-1{opacity:0.49;fill:url(#Degradado_sin_nombre_29);}.cls-2{fill:#070808;}</style><linearGradient id="Degradado_sin_nombre_29" x1="600.03" x2="600.03" y2="704.8" gradientUnits="userSpaceOnUse"><stop offset="0" stop-color="#ede318"/><stop offset="1" stop-color="#8e800e"/></linearGradient></defs><g id="Capa_2" data-name="Capa 2"><g id="Capa_4" data-name="Capa 4"><polygon class="cls-1" points="0.07 0 1065.63 0 1200 99.71 1200 704.8 132.25 704.8 0.07 628.01 0.07 0"/><polygon class="cls-2" points="1199.93 99.92 1199.93 705.01 135.01 705.01 135.01 699.14 1193.39 699.14 1193.39 379.26 1154.93 354.07 1154.93 148.79 1193.39 125.98 1193.39 103.26 1060.19 5.08 1060.19 0.21 1065.56 0.21 1199.93 99.92"/><polygon class="cls-2" points="1060.19 0.21 1060.19 5.08 303.23 5.08 271.32 25.62 3.99 26.05 3.99 324.08 0 324.08 0 0.21 1060.19 0.21"/><polygon class="cls-2" points="135.01 699.14 135.01 705.01 132.18 705.01 0 628.22 0 623.52 3.99 623.52 135.01 699.14"/><polygon class="cls-2" points="44.32 348.21 44.32 553.49 3.99 577.23 3.99 623.52 0 623.52 0 324.08 3.99 324.08 44.32 348.21"/></g></g></svg>