<svg xmlns="http://www.w3.org/2000/svg" viewBox="0 0 415.01 45.1"><defs><style>.cls-1,.cls-3{fill:none;stroke-miterlimit:10;}.cls-1{stroke:#fff;stroke-width:7.93px;}.cls-2{fill:#8e800e;}.cls-3{stroke:#1d1e1c;stroke-width:2.04px;}</style></defs><g id="Capa_2" data-name="Capa 2"><g id="Capa_4" data-name="Capa 4"><path class="cls-1" d="M4.39,38.9C5,28.31,3.51,17.71,4.11,7.11c0-.71.12-1.45,1.64-2.08,3.67-1.51,12.7-.92,20.57-.84,78.06.8,158.9.17,237.05-.05C310,4,356.58,3.79,403.12,4.2c2.14,0,6.31.19,6.8,1s-.58,6.59-.81,9.5c-.6,7.87,3.33,14.76,1.39,22.62-.29,1.2-.82,2.5-4.69,3.36s-82.47.42-95.43.1c-49.52-1.2-98.85.41-148.68.37-44.67,0-89.12-.5-133.83-.23C19.86,40.92,4.24,41.54,4.39,38.9Z"/><path class="cls-2" d="M162.85,40.28c-43.69,0-87.15-.48-130.87-.22-7.84,0-25.55,1-23.85-1.53C8.72,28.41,7.1,18.07,7.69,8c0-.67-.74-1.81.76-2.41C12,4.09,22.77,5,30.45,5c76.54.65,155.58.1,232-.1,45.57-.12,91.37-.37,136.88,0,3.92,0,8.12-.25,7.26.89-.51.82-.62,6.12-1.27,9.23-.59,7.52,3.53,14,1.64,21.51-.29,1.14.32,2.59-3.45,3.4s-82.59.24-95.26-.06C259.82,38.78,211.57,40.32,162.85,40.28Z"/><path class="cls-3" d="M8.13,38.53C8.72,28.41,7.1,18.07,7.69,8c0-.67-.74-1.81.76-2.41C12,4.09,22.77,5,30.45,5c76.54.65,155.58.1,232-.1,45.57-.12,91.37-.37,136.88,0,3.92,0,8.12-.25,7.26.89-.51.82-.62,6.12-1.27,9.23-.59,7.52,3.53,14,1.64,21.51-.29,1.14.32,2.59-3.45,3.4s-82.59.24-95.26-.06c-48.43-1.15-96.68.39-145.4.35-43.69,0-87.15-.48-130.87-.22C24.14,40.11,6.43,41.06,8.13,38.53Z"/></g></g></svg>