<svg xmlns="http://www.w3.org/2000/svg" viewBox="0 0 320 100"><defs><style>.cls-1{fill:#ede318;}.cls-2{fill:#ff0;}.cls-3{fill:none;stroke:#070808;stroke-miterlimit:10;stroke-width:3.01px;}.cls-4{fill:#a59e10;opacity:0.5;}</style></defs><g id="Capa_2" data-name="Capa 2"><g id="Capa_4" data-name="Capa 4"><rect class="cls-1" x="10.31" y="9.42" width="299.38" height="81.15" rx="4.71"/><path class="cls-2" d="M301.94,7.15H18.06c-5.68,0-10.28,4.13-10.28,9.24V83.61c0,5.11,4.6,9.24,10.28,9.24H301.94c5.68,0,10.28-4.13,10.28-9.24V16.39C312.22,11.28,307.62,7.15,301.94,7.15Zm5.22,76.46a5,5,0,0,1-5.22,4.69H18.06a5,5,0,0,1-5.22-4.69V16.39a5,5,0,0,1,5.22-4.69H301.94a5,5,0,0,1,5.22,4.69Z"/><rect class="cls-3" x="1.51" y="1.51" width="316.99" height="96.99" rx="10.29"/><path class="cls-4" d="M312.22,51V83.61c0,5.11-4.6,9.24-10.28,9.24H18.06c-5.68,0-10.28-4.13-10.28-9.24V51Z"/></g></g></svg>