<svg xmlns="http://www.w3.org/2000/svg" viewBox="0 0 155 75"><defs><style>.cls-1{fill:#ede318;}.cls-2{fill:#ff0;}.cls-3{fill:none;stroke:#070808;stroke-width:2.98px;}.cls-3,.cls-5{stroke-miterlimit:10;}.cls-4{fill:#a59e10;opacity:0.5;}.cls-5{fill:#fbae17;stroke:#fbae17;stroke-width:0.57px;}.cls-6{fill:#ffd574;}</style></defs><g id="Capa_2" data-name="Capa 2"><g id="Capa_4" data-name="Capa 4"><rect class="cls-1" x="5.71" y="7.37" width="143.57" height="60.26" rx="4.66"/><path class="cls-2" d="M145.57,5.68H9.43c-2.72,0-4.93,3.07-4.93,6.86V62.46c0,3.79,2.21,6.86,4.93,6.86H145.57c2.73,0,4.93-3.07,4.93-6.86V12.54C150.5,8.75,148.3,5.68,145.57,5.68Zm2.5,56.78c0,1.92-1.12,3.48-2.5,3.48H9.43c-1.38,0-2.5-1.56-2.5-3.48V12.54c0-1.92,1.12-3.48,2.5-3.48H145.57c1.38,0,2.5,1.56,2.5,3.48Z"/><rect class="cls-3" x="1.49" y="1.49" width="152.02" height="72.02" rx="10.18"/><path class="cls-4" d="M150.5,38.24V62.46c0,3.79-2.2,6.86-4.93,6.86H9.43c-2.72,0-4.93-3.07-4.93-6.86V38.24Z"/><path class="cls-5" d="M118.51,19.44c-1.8-.86-3.27-.75-4.39.44L100.37,31.2A4.33,4.33,0,0,0,99,35.77l1.46,10.46a4.62,4.62,0,0,0,2.68,3.26L119,57.55c3.15,1.61,5.86,1.72,8.06,0l10-8.71a5.63,5.63,0,0,0,2-5.44l-2.2-14.16c-.64-2.81-2.72-4.79-6.34-5.88Z"/><path class="cls-6" d="M116.56,23.81c-1,.9-1.94,1.76-2.92,2.63s-2,1.72-3,2.55-2,1.65-3,2.52l-2.95,2.61,0-.09c.11,1.88.2,3.77.26,5.66s.12,3.77.12,5.67h0c-.16-1.89-.25-3.77-.37-5.66s-.17-3.77-.22-5.66V34l0,0,3-2.51c1-.83,2-1.72,3-2.59s2-1.73,3-2.57,2-1.68,3-2.48Z"/><path class="cls-6" d="M132.65,31.2l.93,3.47c.32,1.16.53,2.34.74,3.53a23.66,23.66,0,0,1,.42,3.57c.08,1.19.23,2.38.36,3.57l0,.11-.12,0a9.24,9.24,0,0,0-2.79,1.72c-.86.7-1.68,1.47-2.47,2.25-1.58,1.57-3.11,3.21-4.65,4.82,1.46-1.68,2.94-3.37,4.52-5a33.31,33.31,0,0,1,2.45-2.3,9.26,9.26,0,0,1,2.86-1.81l-.1.15c-.14-1.19-.25-2.38-.32-3.58a25,25,0,0,0-.37-3.56c-.2-1.18-.38-2.37-.68-3.52Z"/><path class="cls-6" d="M111.92,36.55V34.14c0-.29.12-.48.47-.53l12.32-2.56c.79-.17,1.3,0,1.5.5l.48,2.58c.06.36-.06.58-.42.63l-1.82.27c-.45,0-.61.27-.53.64l.92,10.12c.16,1.42-.52,2.18-2.19,2.18l-9.75.22c-1,.07-1.5-.3-1.47-1.09V44.89a1.55,1.55,0,0,1,1.47-1.06h1.7a.8.8,0,0,1,.74.87v.66c.06.48.27.81.73.87h3.41c.93,0,1.3-.45,1.22-1.31l-.49-7.4c0-.92-.83-1.21-2.19-1.09l-5.42.38C112.14,36.82,111.92,36.73,111.92,36.55Z"/><path class="cls-6" d="M117.53,42.52l9.75-1.08c1.47-.22,1.71.87.25.87C124.26,42.54,120.92,42.6,117.53,42.52Z"/><path class="cls-6" d="M117.53,39.69a2.6,2.6,0,0,1,1.22-.43l8-.87c1.21-.22,1.7.43.24.65l-8.58.87C117.8,40,117.63,39.77,117.53,39.69Z"/></g></g></svg>