<svg xmlns="http://www.w3.org/2000/svg" xmlns:xlink="http://www.w3.org/1999/xlink" viewBox="0 0 650 560"><defs><style>.cls-1{opacity:0.49;fill:url(#Degradado_sin_nombre_5);}.cls-2{fill:#070808;}.cls-3{opacity:0.45;}.cls-10,.cls-11,.cls-12,.cls-13,.cls-14,.cls-15,.cls-16,.cls-17,.cls-18,.cls-19,.cls-20,.cls-21,.cls-22,.cls-4,.cls-5,.cls-6,.cls-7,.cls-8,.cls-9{fill:none;stroke-miterlimit:10;stroke-width:2.1px;}.cls-4{stroke:url(#Degradado_sin_nombre_160);}.cls-5{stroke:url(#Degradado_sin_nombre_160-2);}.cls-6{stroke:url(#Degradado_sin_nombre_160-3);}.cls-7{stroke:url(#Degradado_sin_nombre_160-4);}.cls-8{stroke:url(#Degradado_sin_nombre_160-5);}.cls-9{stroke:url(#Degradado_sin_nombre_160-6);}.cls-10{stroke:url(#Degradado_sin_nombre_160-7);}.cls-11{stroke:url(#Degradado_sin_nombre_160-8);}.cls-12{stroke:url(#Degradado_sin_nombre_160-9);}.cls-13{stroke:url(#Degradado_sin_nombre_160-10);}.cls-14{stroke:url(#Degradado_sin_nombre_160-11);}.cls-15{stroke:url(#Degradado_sin_nombre_160-12);}.cls-16{stroke:url(#Degradado_sin_nombre_160-13);}.cls-17{stroke:url(#Degradado_sin_nombre_160-14);}.cls-18{stroke:url(#Degradado_sin_nombre_160-15);}.cls-19{stroke:url(#Degradado_sin_nombre_160-16);}.cls-20{stroke:url(#Degradado_sin_nombre_160-17);}.cls-21{stroke:url(#Degradado_sin_nombre_160-18);}.cls-22{stroke:url(#Degradado_sin_nombre_160-19);}</style><linearGradient id="Degradado_sin_nombre_5" x1="325.19" x2="325.19" y2="556.91" gradientUnits="userSpaceOnUse"><stop offset="0" stop-color="#2a82b9"/><stop offset="1" stop-color="#020c2a"/></linearGradient><radialGradient id="Degradado_sin_nombre_160" cx="317.52" cy="117.18" r="145" gradientTransform="translate(9.7 -117.18) scale(0.97 2)" gradientUnits="userSpaceOnUse"><stop offset="0" stop-color="#fff"/><stop offset="0" stop-color="#fff" stop-opacity="0.98"/><stop offset="0.01" stop-color="#fff" stop-opacity="0.82"/><stop offset="0.03" stop-color="#fff" stop-opacity="0.68"/><stop offset="0.04" stop-color="#fff" stop-opacity="0.55"/><stop offset="0.06" stop-color="#fff" stop-opacity="0.45"/><stop offset="0.08" stop-color="#fff" stop-opacity="0.36"/><stop offset="0.1" stop-color="#fff" stop-opacity="0.29"/><stop offset="0.13" stop-color="#fff" stop-opacity="0.25"/><stop offset="0.17" stop-color="#fff" stop-opacity="0.22"/><stop offset="0.28" stop-color="#fff" stop-opacity="0.21"/><stop offset="0.32" stop-color="#fff" stop-opacity="0.16"/><stop offset="0.39" stop-color="#fff" stop-opacity="0.09"/><stop offset="0.46" stop-color="#fff" stop-opacity="0.04"/><stop offset="0.57" stop-color="#fff" stop-opacity="0.01"/><stop offset="0.78" stop-color="#fff" stop-opacity="0"/><stop offset="0.98" stop-color="#fff" stop-opacity="0"/></radialGradient><radialGradient id="Degradado_sin_nombre_160-2" cx="317.53" cy="199.16" r="144.99" gradientTransform="translate(9.7 -199.16) scale(0.97 2)" xlink:href="#Degradado_sin_nombre_160"/><radialGradient id="Degradado_sin_nombre_160-3" cx="317.52" cy="117" r="145.58" gradientTransform="translate(9.7 -117) scale(0.97 2)" xlink:href="#Degradado_sin_nombre_160"/><radialGradient id="Degradado_sin_nombre_160-4" cx="317.54" cy="281.14" r="144.98" gradientTransform="translate(9.7 -281.14) scale(0.97 2)" xlink:href="#Degradado_sin_nombre_160"/><radialGradient id="Degradado_sin_nombre_160-5" cx="317.53" cy="198.97" r="145.59" gradientTransform="translate(9.7 -198.97) scale(0.97 2)" xlink:href="#Degradado_sin_nombre_160"/><radialGradient id="Degradado_sin_nombre_160-6" cx="317.56" cy="363.12" r="144.97" gradientTransform="translate(9.7 -363.12) scale(0.97 2)" xlink:href="#Degradado_sin_nombre_160"/><radialGradient id="Degradado_sin_nombre_160-7" cx="317.54" cy="280.95" r="145.6" gradientTransform="translate(9.7 -280.95) scale(0.97 2)" xlink:href="#Degradado_sin_nombre_160"/><radialGradient id="Degradado_sin_nombre_160-8" cx="317.57" cy="445.09" r="144.96" gradientTransform="translate(9.7 -445.09) scale(0.97 2)" xlink:href="#Degradado_sin_nombre_160"/><radialGradient id="Degradado_sin_nombre_160-9" cx="317.56" cy="362.93" r="145.61" gradientTransform="translate(9.7 -362.93) scale(0.97 2)" xlink:href="#Degradado_sin_nombre_160"/><radialGradient id="Degradado_sin_nombre_160-10" cx="317.57" cy="444.91" r="145.62" gradientTransform="translate(9.7 -444.91) scale(0.97 2)" xlink:href="#Degradado_sin_nombre_160"/><radialGradient id="Degradado_sin_nombre_160-11" cx="112.51" cy="281.06" r="116.02" gradientTransform="translate(9.7 -281.06) scale(0.97 2)" xlink:href="#Degradado_sin_nombre_160"/><radialGradient id="Degradado_sin_nombre_160-12" cx="194.67" cy="281.06" r="116.6" gradientTransform="translate(9.7 -281.06) scale(0.97 2)" xlink:href="#Degradado_sin_nombre_160"/><radialGradient id="Degradado_sin_nombre_160-13" cx="276.47" cy="281.05" r="116" gradientTransform="translate(9.7 -281.05) scale(0.97 2)" xlink:href="#Degradado_sin_nombre_160"/><radialGradient id="Degradado_sin_nombre_160-14" cx="358.62" cy="281.04" r="116.61" gradientTransform="translate(9.7 -281.04) scale(0.97 2)" xlink:href="#Degradado_sin_nombre_160"/><radialGradient id="Degradado_sin_nombre_160-15" cx="194.49" cy="281.06" r="116.01" gradientTransform="translate(9.7 -281.06) scale(0.97 2)" xlink:href="#Degradado_sin_nombre_160"/><radialGradient id="Degradado_sin_nombre_160-16" cx="440.43" cy="281.04" r="116" gradientTransform="translate(9.7 -281.04) scale(0.97 2)" xlink:href="#Degradado_sin_nombre_160"/><radialGradient id="Degradado_sin_nombre_160-17" cx="522.58" cy="281.03" r="116.63" gradientTransform="translate(9.7 -281.03) scale(0.97 2)" xlink:href="#Degradado_sin_nombre_160"/><radialGradient id="Degradado_sin_nombre_160-18" cx="358.45" cy="281.04" r="116" gradientTransform="translate(9.7 -281.04) scale(0.97 2)" xlink:href="#Degradado_sin_nombre_160"/><radialGradient id="Degradado_sin_nombre_160-19" cx="522.4" cy="281.03" r="115.99" gradientTransform="translate(9.7 -281.03) scale(0.97 2)" xlink:href="#Degradado_sin_nombre_160"/></defs><g id="Capa_2" data-name="Capa 2"><g id="Capa_4" data-name="Capa 4"><polygon class="cls-1" points="1.7 0 576.26 0 648.72 78.79 648.72 556.91 72.97 556.91 1.66 480.07 1.7 0"/><path class="cls-2" d="M648.68,558.64,72.93,560,0,481.64,0,0,577.55.83,650,79.62ZM165.51,5.61,148,24.15,6.55,24.5V256.08l19,19.05V437.34L6.17,456v19.56L74.46,551.7H284.1l15.62-20.61,192.58.28,17.28,20.33h132.7v-252l-17.87-19.91V117.56l18.21-17.83v-18l-69-76.17Z"/><g class="cls-3"><polyline class="cls-4" points="516.68 117.14 516.47 117.14 437.15 117.17 436.93 117.17 357.62 117.18 357.4 117.18 278.09 117.19 277.87 117.19 198.56 117.21 198.34 117.21 119.03 117.22 118.81 117.22"/><polyline class="cls-5" points="516.68 199.12 516.49 199.12 437.15 199.14 436.95 199.14 357.62 199.15 357.42 199.15 278.09 199.16 277.89 199.16 198.56 199.19 198.36 199.19 119.03 199.2 118.83 199.2"/><polyline class="cls-6" points="118.81 117 119.03 117 198.34 117 198.56 117 277.87 117 278.09 117 357.4 117 357.62 117 436.93 117 437.15 117 516.47 117 516.68 117"/><polyline class="cls-7" points="516.68 281.1 516.51 281.1 437.15 281.12 436.98 281.12 357.62 281.13 357.44 281.13 278.09 281.14 277.91 281.14 198.56 281.16 198.38 281.16 119.03 281.18 118.85 281.18"/><polyline class="cls-8" points="118.83 198.97 119.03 198.97 198.36 198.97 198.56 198.97 277.89 198.97 278.09 198.97 357.42 198.97 357.62 198.97 436.95 198.97 437.15 198.97 516.49 198.97 516.68 198.97"/><polyline class="cls-9" points="118.88 363.15 119.03 363.15 198.41 363.14 198.56 363.14 277.94 363.12 278.09 363.12 357.48 363.11 357.62 363.11 437.01 363.1 437.15 363.1 516.54 363.08 516.68 363.08"/><polyline class="cls-10" points="118.85 280.95 119.03 280.95 198.38 280.95 198.56 280.95 277.91 280.95 278.09 280.95 357.44 280.95 357.62 280.95 436.98 280.95 437.15 280.95 516.51 280.95 516.68 280.95"/><polyline class="cls-11" points="516.68 445.06 516.56 445.06 437.15 445.08 437.03 445.08 357.62 445.09 357.5 445.09 278.09 445.1 277.96 445.1 198.56 445.12 198.44 445.12 119.03 445.13 118.9 445.13"/><polyline class="cls-12" points="118.88 362.93 119.03 362.93 198.41 362.93 198.56 362.93 277.94 362.93 278.09 362.93 357.48 362.93 357.62 362.93 437.01 362.93 437.15 362.93 516.54 362.93 516.68 362.93"/><polyline class="cls-13" points="516.68 444.91 516.56 444.91 437.15 444.91 437.03 444.91 357.62 444.91 357.5 444.91 278.09 444.91 277.96 444.91 198.56 444.91 198.44 444.91 119.03 444.91 118.9 444.91"/><polyline class="cls-14" points="118.9 445.13 118.9 444.91 118.88 363.15 118.88 362.93 118.85 281.18 118.85 280.95 118.83 199.2 118.83 198.97 118.81 117.22 118.81 117"/><polyline class="cls-15" points="198.56 117 198.56 117.21 198.56 198.97 198.56 199.19 198.56 280.95 198.56 281.16 198.56 362.93 198.56 363.14 198.56 444.91 198.56 445.12"/><polyline class="cls-16" points="277.96 445.1 277.96 444.91 277.94 363.12 277.94 362.93 277.91 281.14 277.91 280.95 277.89 199.16 277.89 198.97 277.87 117.19 277.87 117"/><polyline class="cls-17" points="357.62 445.09 357.62 444.91 357.62 363.11 357.62 362.93 357.62 281.13 357.62 280.95 357.62 199.15 357.62 198.97 357.62 117.18 357.62 117"/><polyline class="cls-18" points="198.44 445.12 198.44 444.91 198.41 363.14 198.41 362.93 198.38 281.16 198.38 280.95 198.36 199.19 198.36 198.97 198.34 117.21 198.34 117"/><polyline class="cls-19" points="437.03 445.08 437.03 444.91 437.01 363.1 437.01 362.93 436.98 281.12 436.98 280.95 436.95 199.14 436.95 198.97 436.93 117.17 436.93 117"/><polyline class="cls-20" points="516.68 445.06 516.68 444.91 516.68 363.08 516.68 362.93 516.68 281.1 516.68 280.95 516.68 199.12 516.68 198.97 516.68 117.14 516.68 117"/><polyline class="cls-21" points="357.5 445.09 357.5 444.91 357.48 363.11 357.48 362.93 357.44 281.13 357.44 280.95 357.42 199.15 357.42 198.97 357.4 117.18 357.4 117"/><polyline class="cls-22" points="516.56 445.06 516.56 444.91 516.54 363.08 516.54 362.93 516.51 281.1 516.51 280.95 516.49 199.12 516.49 198.97 516.47 117.14 516.47 117"/></g></g></g></svg>