<svg xmlns="http://www.w3.org/2000/svg" viewBox="0 0 90 90"><defs><style>.cls-1{fill:#fb4942;}.cls-2{fill:#e02222;}.cls-3{fill:#070808;}.cls-4{opacity:0.5;}.cls-5{fill:#db3e3e;}</style></defs><g id="Capa_2" data-name="Capa 2"><g id="Capa_4" data-name="Capa 4"><path class="cls-1" d="M71.38,82.5H18.62A11.36,11.36,0,0,1,7.5,70.92V19.08A11.36,11.36,0,0,1,18.62,7.5H71.38A11.36,11.36,0,0,1,82.5,19.08V70.92A11.36,11.36,0,0,1,71.38,82.5Z"/><path class="cls-2" d="M71.38,5.88H18.62A13,13,0,0,0,5.93,19.09V70.92a13,13,0,0,0,12.69,13.2H71.38a13,13,0,0,0,12.69-13.2V19.09A13,13,0,0,0,71.38,5.88Zm9.55,65a9.76,9.76,0,0,1-9.55,10H18.62a9.76,9.76,0,0,1-9.55-10V19.09a9.76,9.76,0,0,1,9.55-10H71.38a9.76,9.76,0,0,1,9.55,10Z"/><path class="cls-3" d="M72.55,3.23c7.91,0,14.35,6.71,14.35,15V71.82c0,8.24-6.44,15-14.35,15H17.45c-7.91,0-14.35-6.71-14.35-15V18.18C3.1,9.94,9.54,3.23,17.45,3.23h55.1m0-3.23H17.45C7.81,0,0,8.14,0,18.18V71.82C0,81.86,7.81,90,17.45,90h55.1C82.19,90,90,81.86,90,71.82V18.18C90,8.14,82.19,0,72.55,0Z"/><g class="cls-4"><path class="cls-5" d="M84.07,45.67V70.92a13,13,0,0,1-12.69,13.2H18.62A13,13,0,0,1,5.93,70.92V45.67Z"/></g><path class="cls-3" d="M65.83,63.48l-4.2,4.38a2.65,2.65,0,0,1-3.86,0L22.63,31.25a2.92,2.92,0,0,1,0-4l4.2-4.37a2.65,2.65,0,0,1,3.86,0L65.83,59.47A2.93,2.93,0,0,1,65.83,63.48Z"/><path class="cls-3" d="M62.2,22.86l4.2,4.37a2.94,2.94,0,0,1,0,4L31.26,67.86a2.65,2.65,0,0,1-3.86,0l-4.2-4.38a2.91,2.91,0,0,1,0-4L58.34,22.86A2.65,2.65,0,0,1,62.2,22.86Z"/></g></g></svg>