<svg xmlns="http://www.w3.org/2000/svg" viewBox="0 0 350.18 100"><defs><style>.cls-1{fill:#ede318;}.cls-2{fill:#ff0;}.cls-3{fill:none;stroke:#070808;stroke-miterlimit:10;stroke-width:3.25px;}.cls-4{fill:#a59e10;opacity:0.5;}</style></defs><g id="Capa_2" data-name="Capa 2"><g id="Capa_4" data-name="Capa 4"><rect class="cls-1" x="11.26" y="9.52" width="327.65" height="80.95" rx="5.08"/><path class="cls-2" d="M330.44,7.25H19.74c-6.21,0-11.25,4.13-11.25,9.22V83.53c0,5.09,5,9.22,11.25,9.22h310.7c6.21,0,11.25-4.13,11.25-9.22V16.47C341.69,11.38,336.65,7.25,330.44,7.25Zm5.71,76.28c0,2.58-2.56,4.68-5.71,4.68H19.74c-3.15,0-5.71-2.1-5.71-4.68V16.47c0-2.58,2.56-4.68,5.71-4.68h310.7c3.15,0,5.71,2.1,5.71,4.68Z"/><rect class="cls-3" x="1.62" y="1.62" width="346.93" height="96.75" rx="11.1"/><path class="cls-4" d="M341.69,51V83.53c0,5.09-5,9.22-11.25,9.22H19.74c-6.21,0-11.25-4.13-11.25-9.22V51Z"/></g></g></svg>