<svg xmlns="http://www.w3.org/2000/svg" viewBox="0 0 110 110"><defs><style>.cls-1{fill:#fb4942;}.cls-2{fill:#e02222;}.cls-3{fill:#070808;}</style></defs><g id="Capa_2" data-name="Capa 2"><g id="Capa_4" data-name="Capa 4"><path class="cls-1" d="M87.24,100.83H22.76c-7.51,0-13.59-6.34-13.59-14.16V23.33c0-7.82,6.08-14.16,13.59-14.16H87.24c7.51,0,13.59,6.34,13.59,14.16V86.67C100.83,94.49,94.75,100.83,87.24,100.83Z"/><path class="cls-2" d="M87.25,7.18H22.75c-8.54,0-15.5,7.25-15.5,16.15V86.68c0,8.91,7,16.14,15.5,16.14h64.5c8.54,0,15.5-7.23,15.5-16.14V23.33C102.75,14.43,95.79,7.18,87.25,7.18Zm11.67,79.5A11.94,11.94,0,0,1,87.25,98.84H22.75A11.94,11.94,0,0,1,11.08,86.68V23.33A11.94,11.94,0,0,1,22.75,11.16h64.5A11.94,11.94,0,0,1,98.92,23.33Z"/><path class="cls-3" d="M88.67,4c9.67,0,17.54,8.2,17.54,18.27V87.78c0,10.07-7.87,18.27-17.54,18.27H21.33c-9.67,0-17.54-8.2-17.54-18.27V22.22C3.79,12.15,11.66,4,21.33,4H88.67m0-3.95H21.33C9.55,0,0,10,0,22.22V87.78C0,100.05,9.55,110,21.33,110H88.67c11.78,0,21.33-10,21.33-22.22V22.22C110,10,100.45,0,88.67,0Z"/><path class="cls-3" d="M80.46,77.59l-5.14,5.35a3.25,3.25,0,0,1-4.71,0L27.66,38.2a3.58,3.58,0,0,1,0-4.91l5.13-5.35a3.24,3.24,0,0,1,4.72,0L80.46,72.68A3.58,3.58,0,0,1,80.46,77.59Z"/><path class="cls-3" d="M76,27.94l5.14,5.35a3.58,3.58,0,0,1,0,4.91l-43,44.74a3.25,3.25,0,0,1-4.71,0l-5.13-5.35a3.56,3.56,0,0,1,0-4.91l43-44.74A3.23,3.23,0,0,1,76,27.94Z"/></g></g></svg>