<svg xmlns="http://www.w3.org/2000/svg" viewBox="0 0 155 75"><defs><style>.cls-1{fill:#ede318;}.cls-2{fill:#ff0;}.cls-3{fill:none;stroke:#070808;stroke-miterlimit:10;stroke-width:2.98px;}.cls-4{fill:#a59e10;opacity:0.5;}.cls-5{fill:#070808;}</style></defs><g id="Capa_2" data-name="Capa 2"><g id="Capa_4" data-name="Capa 4"><rect class="cls-1" x="5.71" y="7.37" width="143.57" height="60.26" rx="4.66"/><path class="cls-2" d="M145.57,5.68H9.43c-2.72,0-4.93,3.07-4.93,6.86V62.46c0,3.79,2.21,6.86,4.93,6.86H145.57c2.73,0,4.93-3.07,4.93-6.86V12.54C150.5,8.75,148.3,5.68,145.57,5.68Zm2.5,56.78c0,1.92-1.12,3.48-2.5,3.48H9.43c-1.38,0-2.5-1.56-2.5-3.48V12.54c0-1.92,1.12-3.48,2.5-3.48H145.57c1.38,0,2.5,1.56,2.5,3.48Z"/><rect class="cls-3" x="1.49" y="1.49" width="152.02" height="72.02" rx="10.18"/><path class="cls-4" d="M150.5,38.24V62.46c0,3.79-2.2,6.86-4.93,6.86H9.43c-2.72,0-4.93-3.07-4.93-6.86V38.24Z"/><path class="cls-5" d="M92.25,32.44H62.75A2.67,2.67,0,0,0,60,35V54.22a2.68,2.68,0,0,0,2.75,2.57h29.5A2.68,2.68,0,0,0,95,54.22V35A2.67,2.67,0,0,0,92.25,32.44ZM77.5,51a6.64,6.64,0,0,1-6.84-6.4,6.86,6.86,0,0,1,13.68,0A6.64,6.64,0,0,1,77.5,51Z"/><path class="cls-5" d="M77.73,18.18c3.53,0,6.4,3.59,6.4,8,0,0,0,.32,0,.75,0,3.45,0,5.75.06,7.29H78.9l-7.35,0c0-.9-.06-2-.1-3.15-.06-2.05-.13-4.17-.13-4.88,0-4.42,2.87-8,6.41-8m0-3.39c-5.41,0-9.8,5.1-9.8,11.4,0,1.68.32,9.73.3,11.4,2.3,0,6.66,0,10.67,0s7.69,0,8.62-.08c.14-.44,0-11,0-11.36,0-6.3-4.38-11.4-9.79-11.4Z"/></g></g></svg>