<svg xmlns="http://www.w3.org/2000/svg" xmlns:xlink="http://www.w3.org/1999/xlink" viewBox="0 0 690 840"><defs><style>.cls-1{opacity:0.49;fill:url(#Degradado_sin_nombre_31);}.cls-2{fill:#070808;}</style><linearGradient id="Degradado_sin_nombre_31" x1="345.02" x2="345.02" y2="839.76" gradientUnits="userSpaceOnUse"><stop offset="0" stop-color="#ede318"/><stop offset="1" stop-color="#8e800e"/></linearGradient></defs><g id="Capa_2" data-name="Capa 2"><g id="Capa_4" data-name="Capa 4"><polygon class="cls-1" points="0.04 0 612.44 0 690 90.44 689.66 839.76 76.01 839.76 0.04 748.27 0.04 0"/><polygon class="cls-2" points="690 90.43 689.62 840 77.59 840 77.59 833.03 685.86 833.03 685.86 451.89 663.76 421.87 663.76 177.27 685.86 150.09 685.16 92.6 686.66 86.56 690 90.43"/><polygon class="cls-2" points="612.39 0.24 686.66 86.56 685.16 92.6 609.31 6.04 609.31 0.24 612.39 0.24"/><polygon class="cls-2" points="609.31 0.24 609.31 6.04 174.27 6.04 155.93 30.52 2.28 31.03 2.28 386.15 0 386.15 0 0.24 609.31 0.24"/><polygon class="cls-2" points="77.59 833.03 77.59 840 75.97 840 0 748.5 0 742.93 2.28 742.93 77.59 833.03"/><polygon class="cls-2" points="25.47 414.88 25.47 659.47 2.28 687.77 2.28 742.93 0 742.93 0 386.15 2.28 386.15 25.47 414.88"/></g></g></svg>